<svg width="16" height="18" viewBox="0 0 16 18" fill="none" xmlns="http://www.w3.org/2000/svg">
<path d="M10.6667 17.6665H5.33333C4.44928 17.6665 3.60143 17.3153 2.97631 16.6902C2.35119 16.0651 2 15.2172 2 14.3332V6.33317C2 6.15636 2.07024 5.98679 2.19526 5.86177C2.32029 5.73674 2.48986 5.6665 2.66667 5.6665C2.84348 5.6665 3.01305 5.73674 3.13807 5.86177C3.2631 5.98679 3.33333 6.15636 3.33333 6.33317V14.3332C3.33333 14.8636 3.54405 15.3723 3.91912 15.7474C4.29419 16.1225 4.8029 16.3332 5.33333 16.3332H10.6667C11.1971 16.3332 11.7058 16.1225 12.0809 15.7474C12.456 15.3723 12.6667 14.8636 12.6667 14.3332V6.33317C12.6667 6.15636 12.7369 5.98679 12.8619 5.86177C12.987 5.73674 13.1565 5.6665 13.3333 5.6665C13.5101 5.6665 13.6797 5.73674 13.8047 5.86177C13.9298 5.98679 14 6.15636 14 6.33317V14.3332C14 15.2172 13.6488 16.0651 13.0237 16.6902C12.3986 17.3153 11.5507 17.6665 10.6667 17.6665Z" fill="#FF6363"/>
<path d="M14.6667 4.33333H1.33335C1.15654 4.33333 0.986974 4.2631 0.861949 4.13807C0.736925 4.01305 0.666687 3.84348 0.666687 3.66667C0.666687 3.48986 0.736925 3.32029 0.861949 3.19526C0.986974 3.07024 1.15654 3 1.33335 3H14.6667C14.8435 3 15.0131 3.07024 15.1381 3.19526C15.2631 3.32029 15.3334 3.48986 15.3334 3.66667C15.3334 3.84348 15.2631 4.01305 15.1381 4.13807C15.0131 4.2631 14.8435 4.33333 14.6667 4.33333Z" fill="#FF6363"/>
<path d="M10.6667 4.33325H5.33335C5.15654 4.33325 4.98697 4.26301 4.86195 4.13799C4.73693 4.01297 4.66669 3.8434 4.66669 3.66659V2.33325C4.66669 1.80282 4.8774 1.29411 5.25247 0.919039C5.62755 0.543966 6.13625 0.333252 6.66669 0.333252H9.33335C9.86379 0.333252 10.3725 0.543966 10.7476 0.919039C11.1226 1.29411 11.3334 1.80282 11.3334 2.33325V3.66659C11.3334 3.8434 11.2631 4.01297 11.1381 4.13799C11.0131 4.26301 10.8435 4.33325 10.6667 4.33325ZM6.00002 2.99992H10V2.33325C10 2.15644 9.92978 1.98687 9.80476 1.86185C9.67974 1.73682 9.51017 1.66659 9.33335 1.66659H6.66669C6.48988 1.66659 6.32031 1.73682 6.19528 1.86185C6.07026 1.98687 6.00002 2.15644 6.00002 2.33325V2.99992Z" fill="#FF6363"/>
<path d="M6.66673 13.6665C6.48992 13.6665 6.32035 13.5963 6.19532 13.4712C6.0703 13.3462 6.00006 13.1766 6.00006 12.9998V8.33317C6.00006 8.15636 6.0703 7.98679 6.19532 7.86177C6.32035 7.73674 6.48992 7.6665 6.66673 7.6665C6.84354 7.6665 7.01311 7.73674 7.13813 7.86177C7.26316 7.98679 7.33339 8.15636 7.33339 8.33317V12.9998C7.33339 13.1766 7.26316 13.3462 7.13813 13.4712C7.01311 13.5963 6.84354 13.6665 6.66673 13.6665Z" fill="#FF6363"/>
<path d="M9.33335 13.6665C9.15654 13.6665 8.98697 13.5963 8.86195 13.4712C8.73692 13.3462 8.66669 13.1766 8.66669 12.9998V8.33317C8.66669 8.15636 8.73692 7.98679 8.86195 7.86177C8.98697 7.73674 9.15654 7.6665 9.33335 7.6665C9.51016 7.6665 9.67973 7.73674 9.80476 7.86177C9.92978 7.98679 10 8.15636 10 8.33317V12.9998C10 13.1766 9.92978 13.3462 9.80476 13.4712C9.67973 13.5963 9.51016 13.6665 9.33335 13.6665Z" fill="#FF6363"/>
</svg>
